<svg width="48" height="48" xmlns="http://www.w3.org/2000/svg">
 <!-- Generator: Sketch 61.2 (89653) - https://sketch.com -->

 <title>close</title>
 <desc>Created with Sketch.</desc>
 <g>
  <title>background</title>
  <rect x="-1" y="-1" width="50" height="50" id="canvas_background" fill="none"/>
 </g>
 <g>
  <title>Layer 1</title>
  <g id="Page-1" fill="white" fill-rule="evenodd">
   <g id="close" fill="#EFEFEF" fill-rule="nonzero">
    <path d="m28.228,23.986l18.864,-18.864c1.172,-1.171 1.172,-3.071 0,-4.242c-1.172,-1.172 -3.07,-1.172 -4.242,0l-18.864,18.864l-18.865,-18.864c-1.172,-1.172 -3.07,-1.172 -4.242,0c-1.172,1.171 -1.172,3.071 0,4.242l18.865,18.864l-18.865,18.864c-1.172,1.171 -1.172,3.071 0,4.242c0.586,0.585 1.354,0.878 2.121,0.878c0.767,0 1.535,-0.293 2.121,-0.879l18.865,-18.864l18.864,18.864c0.586,0.586 1.354,0.879 2.121,0.879c0.767,0 1.535,-0.293 2.121,-0.879c1.172,-1.171 1.172,-3.071 0,-4.242l-18.864,-18.863z" id="Path" fill="#039c4a"/>
   </g>
  </g>
 </g>
</svg>